<svg xmlns="http://www.w3.org/2000/svg" viewBox="0 0 256 256" role="img" aria-labelledby="title desc">
  <title id="title">CRUD Man Logo</title>
  <desc id="desc">Minimal black-and-white monkey face with a tilted hat and sunglasses.</desc>

  <!-- Outer ring -->
  <circle cx="128" cy="128" r="116" fill="none" stroke="#000" stroke-width="8" />

  <!-- Hat (smaller, tilted) -->
  <ellipse cx="128" cy="86" rx="70" ry="10" fill="#000" />
  <path d="M90 64c18-8 76-6 86 5 2 3-2 9-5 10-23-5-54-4-82 2-5-2-7-9-5-11z" fill="#000" transform="rotate(-8 128 76)" />

  <!-- Monkey face silhouette -->
  <ellipse cx="128" cy="138" rx="56" ry="46" fill="#fff" stroke="#000" stroke-width="6" />
  <!-- Ears -->
  <ellipse cx="72" cy="138" rx="18" ry="22" fill="#fff" stroke="#000" stroke-width="6" />
  <ellipse cx="184" cy="138" rx="18" ry="22" fill="#fff" stroke="#000" stroke-width="6" />

  <!-- Sunglasses (bigger) -->
  <rect x="86" y="122" width="38" height="18" rx="5" fill="#000" />
  <rect x="132" y="122" width="38" height="18" rx="5" fill="#000" />
  <rect x="124" y="130" width="16" height="5" fill="#000" />

  <!-- Snout and smiling mouth -->
  <ellipse cx="128" cy="154" rx="26" ry="18" fill="#fff" stroke="#000" stroke-width="4" />
  <path d="M110 154 Q 128 172 146 154" fill="none" stroke="#000" stroke-width="3.5" stroke-linecap="round" />

  <!-- Subtle code brackets hint -->
  <path d="M34 98c0-10 8-18 18-18" fill="none" stroke="#000" stroke-width="6" stroke-linecap="round"/>
  <path d="M204 80c10 0 18 8 18 18" fill="none" stroke="#000" stroke-width="6" stroke-linecap="round"/>

  <!-- Accessibility-friendly contrast rectangle for white fills when shown on white pages (invisible stroke) -->
  <rect x="0" y="0" width="256" height="256" fill="none" stroke="none" />
</svg>

