<svg xmlns="http://www.w3.org/2000/svg" viewBox="0 0 256 256" role="img" aria-labelledby="title desc">
  <title id="title">CRUD Man Logo</title>
  <desc id="desc">Black-and-white techie monkey face with a hat inside a circle.</desc>

  <!-- Outer ring -->
  <circle cx="128" cy="128" r="116" fill="none" stroke="#000" stroke-width="8" />

  <!-- Hat -->
  <path d="M72 76h112c0 0-4-18-12-24-8-6-28-10-44-10s-36 4-44 10c-8 6-12 24-12 24z" fill="#000" />
  <rect x="60" y="76" width="136" height="10" rx="5" fill="#000" />

  <!-- Monkey face -->
  <ellipse cx="128" cy="120" rx="52" ry="44" fill="#fff" stroke="#000" stroke-width="6" />
  <!-- Ears -->
  <ellipse cx="76" cy="120" rx="18" ry="22" fill="#fff" stroke="#000" stroke-width="6" />
  <ellipse cx="180" cy="120" rx="18" ry="22" fill="#fff" stroke="#000" stroke-width="6" />
  <!-- Eyes -->
  <circle cx="110" cy="115" r="6" fill="#000" />
  <circle cx="146" cy="115" r="6" fill="#000" />
  <!-- Nose / snout -->
  <ellipse cx="128" cy="134" rx="24" ry="16" fill="#fff" stroke="#000" stroke-width="4" />
  <circle cx="120" cy="134" r="2" fill="#000" />
  <circle cx="136" cy="134" r="2" fill="#000" />
  <path d="M116 142c6 6 18 6 24 0" fill="none" stroke="#000" stroke-width="3" stroke-linecap="round" />

  <!-- Chin / jawline -->
  <path d="M88 142c0 20 18 30 40 30s40-10 40-30" fill="none" stroke="#000" stroke-width="4" />

  <!-- Subtle code brackets hint -->
  <path d="M34 96c0-10 8-18 18-18" fill="none" stroke="#000" stroke-width="6" stroke-linecap="round"/>
  <path d="M204 78c10 0 18 8 18 18" fill="none" stroke="#000" stroke-width="6" stroke-linecap="round"/>

  <!-- Accessibility-friendly contrast rectangle for white fills when shown on white pages (invisible stroke) -->
  <rect x="0" y="0" width="256" height="256" fill="none" stroke="none" />
</svg>

