<svg xmlns="http://www.w3.org/2000/svg" viewBox="0 0 256 256" role="img" aria-labelledby="title desc">
  <title id="title">CRUD Man Logo</title>
  <desc id="desc">Minimal black-and-white monkey face with the previous flatter hat style, sunglasses, and crisp strokes.</desc>

  <!-- Outer ring -->
  <circle cx="128" cy="128" r="116" fill="none" stroke="#000" stroke-width="8" />

  <!-- Hat (slanted, taller crown, narrower brim) -->
  <g transform="rotate(-12 128 82)">
    <ellipse cx="128" cy="86" rx="66" ry="12" fill="#000" />
    <rect x="90" y="56" width="76" height="26" rx="8" fill="#000" />
  </g>

  <!-- Monkey face silhouette -->
  <ellipse cx="128" cy="138" rx="56" ry="46" fill="#fff" stroke="#000" stroke-width="6" />
  <!-- Ears -->
  <ellipse cx="72" cy="138" rx="18" ry="22" fill="#fff" stroke="#000" stroke-width="6" />
  <ellipse cx="184" cy="138" rx="18" ry="22" fill="#fff" stroke="#000" stroke-width="6" />

  <!-- Sunglasses (stroke only, crisper) -->
  <rect x="84" y="116" width="42" height="24" rx="6" fill="none" stroke="#000" stroke-width="5" />
  <rect x="132" y="116" width="42" height="24" rx="6" fill="none" stroke="#000" stroke-width="5" />
  <line x1="126" y1="128" x2="130" y2="128" stroke="#000" stroke-width="5" stroke-linecap="round" />

  <!-- No popping eyes -->

  <!-- Snout and big teeth -->
  <ellipse cx="128" cy="154" rx="26" ry="18" fill="#fff" stroke="#000" stroke-width="4" />
  <!-- Teeth box (stroke only) -->
  <rect x="110" y="152" width="36" height="12" rx="2" fill="none" stroke="#000" stroke-width="3" />
  <!-- Teeth separators -->
  <line x1="118" y1="152" x2="118" y2="164" stroke="#000" stroke-width="3" />
  <line x1="128" y1="152" x2="128" y2="164" stroke="#000" stroke-width="3" />
  <line x1="138" y1="152" x2="138" y2="164" stroke="#000" stroke-width="3" />

  <!-- Subtle code brackets hint -->
  <path d="M34 98c0-10 8-18 18-18" fill="none" stroke="#000" stroke-width="6" stroke-linecap="round"/>
  <path d="M204 80c10 0 18 8 18 18" fill="none" stroke="#000" stroke-width="6" stroke-linecap="round"/>

  

  <!-- Accessibility-friendly contrast rectangle for white fills when shown on white pages (invisible stroke) -->
  <rect x="0" y="0" width="256" height="256" fill="none" stroke="none" />
</svg>

