<svg xmlns="http://www.w3.org/2000/svg" viewBox="0 0 256 256" role="img" aria-labelledby="title desc">
  <title id="title">CRUD Man Logo</title>
  <desc id="desc">Minimal black-and-white monkey face with a tilted hat and sunglasses.</desc>

  <!-- Outer ring -->
  <circle cx="128" cy="128" r="116" fill="none" stroke="#000" stroke-width="8" />

  <!-- Hat (simple Red Hat–style: wide brim + tilted crown) -->
  <ellipse cx="128" cy="84" rx="85" ry="14" fill="#000" />
  <path d="M82 58c22-10 92-8 104 6 2 3-2 10-6 12-26-6-60-5-92 2-6-3-8-10-6-13z" fill="#000" transform="rotate(-8 128 72)" />

  <!-- Monkey face silhouette -->
  <ellipse cx="128" cy="138" rx="56" ry="46" fill="#fff" stroke="#000" stroke-width="6" />
  <!-- Ears -->
  <ellipse cx="72" cy="138" rx="18" ry="22" fill="#fff" stroke="#000" stroke-width="6" />
  <ellipse cx="184" cy="138" rx="18" ry="22" fill="#fff" stroke="#000" stroke-width="6" />

  <!-- Sunglasses (cooling glass) -->
  <rect x="92" y="124" width="30" height="14" rx="4" fill="#000" />
  <rect x="134" y="124" width="30" height="14" rx="4" fill="#000" />
  <rect x="122" y="129" width="12" height="4" fill="#000" />

  <!-- Snout and mouth -->
  <ellipse cx="128" cy="152" rx="26" ry="18" fill="#fff" stroke="#000" stroke-width="4" />
  <path d="M116 158c6 6 18 6 24 0" fill="none" stroke="#000" stroke-width="3" stroke-linecap="round" />

  <!-- Subtle code brackets hint -->
  <path d="M34 98c0-10 8-18 18-18" fill="none" stroke="#000" stroke-width="6" stroke-linecap="round"/>
  <path d="M204 80c10 0 18 8 18 18" fill="none" stroke="#000" stroke-width="6" stroke-linecap="round"/>

  <!-- Accessibility-friendly contrast rectangle for white fills when shown on white pages (invisible stroke) -->
  <rect x="0" y="0" width="256" height="256" fill="none" stroke="none" />
</svg>

